<?xml version="1.0" encoding="UTF-8" standalone="no"?>
<svg
   id="vector"
   width="191.98572"
   height="134.78799"
   viewBox="0 0 191.98572 134.78799"
   version="1.1"
   xmlns="http://www.w3.org/2000/svg">
  <path
     fill="#FFFFFF"
     d="m 92.469016,134.78799 c -39.2,-2.27 -85.1800004,-40.89 -83.7100004,-43.07 1.9700004,-2.91 8.1400004,-9.93 8.1600004,-10.6 0.02,-1.2 -18.0800004,-12.39 -16.86000042,-14.86 1.58000002,-3.2 6.28000002,-9.6 7.01000002,-9.59 1.88,0.03 19.0000004,14.15 19.0000004,14.15 2.99,-2.83 10.3,-9.52 10.3,-9.52 0,0 -18.33,-20.36 -18.33,-21.81 0,-0.66 8.93,-9.35 9.43,-8.75 l 18.98,22.8 c 6.08,-4.8 12.58,-7.8 12.58,-7.8 l -14.12,-30.49 c 0.36,-1.36 11.29,-6.5800002 11.86,-5.4000002 l 14.4,30.1800002 c 7.87,-2.2 13.5,-2.24 13.5,-2.24 l 1.06,-37.46000023 c 0.79,-0.53 11.23,-0.37 12.49,0.14 l 0.9,38.11000023 c 9.000004,0.6 14.950004,3.19 14.950004,3.19 l 12.7,-36.5600002 c 0.66,0 2.89,0.65 8.87,2.59 2.13,0.69 2.21,0.8 2.04,2.9500002 -0.57,4.03 -11.08,34.8 -11.08,34.8 7.47,2.42 14.84,6.99 12.64,6.74 0,0 23.12,-27.35 24.02,-27.99 1.52,-1.08 9.89,6.24 9.53,8.02 -0.49,2.39 -21.36,28.05 -21.36,28.05 10.41,8.69 11.57,10.8 11.57,10.8 l 21.49,-14.28 c 1.33,-0.88 8.76,9.84 7.31,10.9 l -17.68,13.26 c 3.48,3.28 9.11,7.57 9.97,10.39 -26.22,21.4 -47.89,39.86 -91.600004,43.34 z m -24.14,-20.92 c -7.19,-9.61 -21.54,-31.5 -1.52,-54.57 -17.86,6.26 -39.92,30.74 -39.92,31.26 0,1.44 18.11,13.07 29.33,18.83 -0.77,-0.33 14.81,8.33 12.11,4.48 z m 96.470004,-22.91 c -14.31,-13.7 -35.08,-26.59 -37.63,-27 -0.82,0 0.23,0.46 1.88,3.86 7.64,15.77 4.33,35.79 -4.98,44.4 -6.73,6.23 25.91,-9.49 40.74,-21.26 z m -91.970004,-19.3 c 3.55,-8.41 4.09,-10.25 0.72,-6.41 -17.62,20.08 0.67,47.98 2.02,45.58 1.2,-2.13 -9.97,-18.57 -2.75,-39.17 z"
     stroke-width="2.14182"
     id="path_0" />
</svg>
